<svg width="18" height="18" viewBox="0 0 18 18" fill="none" xmlns="http://www.w3.org/2000/svg">
<path d="M10.8179 12.8954C10.8861 12.8273 10.9403 12.7463 10.9772 12.6573C11.0142 12.5682 11.0332 12.4727 11.0332 12.3762C11.0332 12.2798 11.0142 12.1843 10.9772 12.0952C10.9403 12.0061 10.8861 11.9252 10.8179 11.8571L7.96073 8.99996L10.8179 6.14284C10.9555 6.00515 11.0329 5.81841 11.0329 5.62369C11.0329 5.42898 10.9555 5.24223 10.8179 5.10455C10.6802 4.96686 10.4934 4.88951 10.2987 4.88951C10.104 4.88951 9.91725 4.96686 9.77957 5.10455L6.39962 8.4845C6.33135 8.55263 6.27719 8.63355 6.24024 8.72263C6.20329 8.81171 6.18427 8.9072 6.18427 9.00364C6.18427 9.10009 6.20329 9.19558 6.24024 9.28466C6.27719 9.37374 6.33135 9.45466 6.39962 9.52279L9.77957 12.9027C10.0594 13.1826 10.5307 13.1826 10.8179 12.8954Z" fill="#303136"/>
</svg>
