<svg width="20" height="25" viewBox="0 0 20 25" fill="none" xmlns="http://www.w3.org/2000/svg">
<g clip-path="url(#clip0_248_7082)" filter="url(#filter0_d_248_7082)">
<path d="M15.25 15H4.75C4.55109 15 4.36032 15.079 4.21967 15.2197C4.07902 15.3603 4 15.5511 4 15.75C4 15.9489 4.07902 16.1397 4.21967 16.2803C4.36032 16.421 4.55109 16.5 4.75 16.5H15.25C15.4489 16.5 15.6397 16.421 15.7803 16.2803C15.921 16.1397 16 15.9489 16 15.75C16 15.5511 15.921 15.3603 15.7803 15.2197C15.6397 15.079 15.4489 15 15.25 15Z" fill="white"/>
<path d="M4.75022 13.5H4.81772L7.94522 13.215C8.28782 13.1809 8.60825 13.0299 8.85272 12.7875L15.6027 6.03752C15.8647 5.76074 16.0063 5.3914 15.9965 5.01042C15.9866 4.62944 15.8261 4.2679 15.5502 4.00502L13.4952 1.95002C13.227 1.69809 12.8756 1.55353 12.5077 1.54385C12.1399 1.53417 11.7813 1.66004 11.5002 1.89752L4.75022 8.64752C4.5078 8.89199 4.35685 9.21242 4.32272 9.55502L4.00022 12.6825C3.99012 12.7924 4.00437 12.9031 4.04197 13.0068C4.07956 13.1105 4.13957 13.2047 4.21772 13.2825C4.2878 13.352 4.37091 13.407 4.46229 13.4443C4.55367 13.4817 4.65152 13.5006 4.75022 13.5ZM12.4527 3.00002L14.5002 5.04752L13.0002 6.51002L10.9902 4.50002L12.4527 3.00002Z" fill="white"/>
</g>
<defs>
<filter id="filter0_d_248_7082" x="-3" y="0" width="26" height="26" filterUnits="userSpaceOnUse" color-interpolation-filters="sRGB">
<feFlood flood-opacity="0" result="BackgroundImageFix"/>
<feColorMatrix in="SourceAlpha" type="matrix" values="0 0 0 0 0 0 0 0 0 0 0 0 0 0 0 0 0 0 127 0" result="hardAlpha"/>
<feOffset dy="4"/>
<feGaussianBlur stdDeviation="2"/>
<feComposite in2="hardAlpha" operator="out"/>
<feColorMatrix type="matrix" values="0 0 0 0 0 0 0 0 0 0 0 0 0 0 0 0 0 0 0.25 0"/>
<feBlend mode="normal" in2="BackgroundImageFix" result="effect1_dropShadow_248_7082"/>
<feBlend mode="normal" in="SourceGraphic" in2="effect1_dropShadow_248_7082" result="shape"/>
</filter>
<clipPath id="clip0_248_7082">
<rect width="18" height="18" fill="white" transform="translate(1)"/>
</clipPath>
</defs>
</svg>
