<svg width="18" height="18" viewBox="0 0 18 18" fill="none" xmlns="http://www.w3.org/2000/svg">
<path fill-rule="evenodd" clip-rule="evenodd" d="M6.1875 7.73438C6.1875 7.34605 6.5023 7.03125 6.89062 7.03125H9.14062C9.52895 7.03125 9.84375 7.34605 9.84375 7.73438V13.7812C9.84375 14.1696 9.52895 14.4844 9.14062 14.4844C8.7523 14.4844 8.4375 14.1696 8.4375 13.7812V8.4375H6.89062C6.5023 8.4375 6.1875 8.1227 6.1875 7.73438Z" fill="#672EE0"/>
<path fill-rule="evenodd" clip-rule="evenodd" d="M5.87109 13.9219C5.87109 13.5335 6.18589 13.2188 6.57422 13.2188H11.4258C11.8141 13.2188 12.1289 13.5335 12.1289 13.9219C12.1289 14.3102 11.8141 14.625 11.4258 14.625H6.57422C6.18589 14.625 5.87109 14.3102 5.87109 13.9219Z" fill="#672EE0"/>
<path d="M9 5.625C8.7775 5.625 8.55999 5.55902 8.37498 5.4354C8.18998 5.31179 8.04578 5.13609 7.96064 4.93052C7.87549 4.72495 7.85321 4.49875 7.89662 4.28052C7.94003 4.0623 8.04717 3.86184 8.20451 3.70451C8.36184 3.54717 8.5623 3.44003 8.78052 3.39662C8.99875 3.35321 9.22495 3.37549 9.43052 3.46064C9.63609 3.54578 9.81179 3.68998 9.9354 3.87498C10.059 4.05999 10.125 4.2775 10.125 4.5C10.125 4.79837 10.0065 5.08452 9.7955 5.2955C9.58452 5.50647 9.29837 5.625 9 5.625Z" fill="#672EE0"/>
</svg>
