<svg width="18" height="18" viewBox="0 0 18 18" fill="none" xmlns="http://www.w3.org/2000/svg">
<path d="M6.98293 5.10462C6.91466 5.17275 6.8605 5.25367 6.82355 5.34275C6.7866 5.43183 6.76758 5.52733 6.76758 5.62377C6.76758 5.72021 6.7866 5.8157 6.82355 5.90479C6.8605 5.99387 6.91466 6.07479 6.98293 6.14291L9.84005 9.00004L6.98293 11.8572C6.84524 11.9949 6.76789 12.1816 6.76789 12.3763C6.76789 12.571 6.84524 12.7578 6.98293 12.8955C7.12061 13.0331 7.30735 13.1105 7.50207 13.1105C7.69679 13.1105 7.88353 13.0331 8.02121 12.8955L11.4012 9.5155C11.4694 9.44737 11.5236 9.36645 11.5605 9.27737C11.5975 9.18829 11.6165 9.0928 11.6165 8.99636C11.6165 8.89991 11.5975 8.80442 11.5605 8.71534C11.5236 8.62626 11.4694 8.54534 11.4012 8.47721L8.02121 5.09726C7.74139 4.81744 7.27011 4.81744 6.98293 5.10462Z" fill="#303136"/>
</svg>
